Coordinates
version=1
nRows=14
nColumns=24
inDegrees=yes

Units are S.I. units (second, meters, Newtons, ...)
Angles are in degrees.

endheader
time	pelvis_tilt	pelvis_list	pelvis_rotation	pelvis_tx	pelvis_ty	pelvis_tz	hip_flexion_r	hip_adduction_r	hip_rotation_r	knee_angle_r	ankle_angle_r	subtalar_angle_r	mtp_angle_r	hip_flexion_l	hip_adduction_l	hip_rotation_l	knee_angle_l	ankle_angle_l	subtalar_angle_l	mtp_angle_l	lumbar_extension	lumbar_bending	lumbar_rotation
      3.59000000	    -11.10687457	     -2.82952568	     -5.85159312	     -1.36366862	     -0.01693603	     -0.23569528	      5.64986556	      5.34131236	     -0.57277671	    -10.24162328	      6.34997896	     -7.69879593	     12.02144572	     38.08645980	    -10.08674096	    -12.10484107	    -52.69897234	     -5.09964706	     -8.59527108	      8.16918666	      5.74718335	      4.81229405	      3.30318965
      3.59500000	    -11.12642579	     -2.72261157	     -5.97240852	     -1.35685250	     -0.01759207	     -0.23563057	      5.07685057	      5.21102402	     -0.54975492	     -9.92840897	      6.54763716	     -7.63860769	     11.94916596	     38.48853349	    -10.01621007	    -12.03757464	    -51.35364578	     -4.96574091	     -8.21059379	      8.33090001	      5.71584264	      4.66940640	      3.47950091
      3.60000000	    -11.23052670	     -2.63176942	     -6.06608789	     -1.35008372	     -0.01838894	     -0.23564804	      4.61319962	      5.10586234	     -0.58579524	     -9.63723617	      6.69899560	     -7.66189400	     11.91914373	     38.97600618	     -9.93694489	    -11.89437839	    -49.96352276	     -4.86862102	     -7.86034725	      8.36370048	      5.76819769	      4.54896987	      3.65979361
      3.60500000	    -11.17378167	     -2.51311265	     -6.20719102	     -1.34329060	     -0.01900184	     -0.23556143	      3.96624123	      4.95507090	     -0.62123305	     -9.32984885	      6.90573148	     -7.53624240	     11.80226326	     39.21313108	     -9.87822587	    -11.84732106	    -48.48757390	     -4.71373894	     -7.34558787	      8.44435267	      5.64421353	      4.38562007	      3.87976169
      3.61000000	    -11.29693833	     -2.42070729	     -6.29455740	     -1.33651129	     -0.01988245	     -0.23558619	      3.52600924	      4.85348967	     -0.70717657	     -9.03966952	      7.04732959	     -7.56780128	     11.76132565	     39.65290775	     -9.80671757	    -11.68798466	    -46.97764283	     -4.62971077	     -6.94488541	      8.43553376	      5.71433794	      4.26127921	      4.05686132
      3.61500000	    -11.23281201	     -2.28899207	     -6.41455549	     -1.32972739	     -0.02052551	     -0.23551616	      2.88313070	      4.68786401	     -0.84491915	     -8.74566828	      7.25045702	     -7.41242526	     11.60325081	     39.81137730	     -9.72985507	    -11.62231023	    -45.37821315	     -4.47615796	     -6.39283600	      8.33421236	      5.58058782	      4.07154840	      4.26237236
      3.62000000	    -11.27194540	     -2.17616145	     -6.50507862	     -1.32292403	     -0.02133599	     -0.23554510	      2.35411914	      4.55240278	     -0.99756989	     -8.46109859	      7.42546521	     -7.32249151	     11.46145995	     40.06540867	     -9.64882233	    -11.48760518	    -43.74135996	     -4.32807915	     -5.89049446	      8.16489435	      5.55812457	      3.91443014	      4.43960562
      3.62500000	    -11.40807598	     -2.07495110	     -6.59756049	     -1.31619187	     -0.02225576	     -0.23553589	      1.95610987	      4.45424503	     -1.20296488	     -8.20525015	      7.50409425	     -7.35863937	     11.38976402	     40.40562317	     -9.59627109	    -11.33044761	    -42.06166556	     -4.28303213	     -5.43272948	      8.05486385	      5.62594810	      3.76775314	      4.60522104
      3.63000000	    -11.32554994	     -1.93808518	     -6.68613926	     -1.30940380	     -0.02294413	     -0.23556798	      1.30346438	      4.27892521	     -1.48292619	     -7.92223370	      7.69358287	     -7.16473372	     11.22424166	     40.43650513	     -9.49303160	    -11.22623359	    -40.31528713	     -4.10344952	     -4.90621087	      7.68031600	      5.46639952	      3.56207568	      4.82059609
      3.63500000	    -11.48293047	     -1.83616149	     -6.76078271	     -1.30264276	     -0.02391502	     -0.23556873	      0.93116636	      4.18730659	     -1.74820814	     -7.67153298	      7.74479856	     -7.20232215	     11.13722223	     40.73189946	     -9.44860382	    -11.07930886	    -38.56253666	     -4.07949623	     -4.44858489	      7.49035802	      5.55865362	      3.40596525	      4.97036996
      3.64000000	    -11.35120534	     -1.68227294	     -6.83007268	     -1.29586826	     -0.02455014	     -0.23565619	      0.24128150	      3.98476286	     -2.14957686	     -7.40779244	      7.93340276	     -6.92685500	     10.91410087	     40.63784567	     -9.31628367	    -10.98306004	    -36.74860551	     -3.90083800	     -3.98127199	      6.79250135	      5.34006031	      3.16900116	      5.18062491
      3.64500000	    -11.33367697	     -1.52608093	     -6.87673584	     -1.28905757	     -0.02531958	     -0.23577600	     -0.30868725	      3.79499158	     -2.58142228	     -7.18170287	      8.12431489	     -6.66522135	     10.54304417	     40.65835684	     -9.17975604	    -10.85841068	    -34.96030873	     -3.65978295	     -3.50245849	      5.57084891	      5.25132096	      2.93651299	      5.34194165
      3.65000000	    -11.49880831	     -1.44773766	     -6.94815372	     -1.28227041	     -0.02633640	     -0.23587033	     -0.64291963	      3.72165325	     -2.94554898	     -7.01507718	      8.30912875	     -6.47286135	      9.76404494	     40.90433750	     -9.16410989	    -10.69912919	    -33.31745265	     -3.05068462	     -2.80819020	      2.95362871	      5.34844851	      2.80731402	      5.50759322
      3.65500000	    -11.61638492	     -1.34419187	     -7.00476287	     -1.27549030	     -0.02730087	     -0.23592376	     -1.03766249	      3.62070345	     -3.22552408	     -6.79792459	      8.27164540	     -6.54540248	      9.70665342	     41.04082163	     -9.12511035	    -10.56868951	    -31.53899092	     -3.05560890	     -2.46639613	      2.83569439	      5.38957594	      2.63342301	      5.64785610
